<svg xmlns="http://www.w3.org/2000/svg" width="2560" height="1440" viewBox="0 0 2560 1440">
  <defs>
    <pattern id="majorGrid" width="160" height="160" patternUnits="userSpaceOnUse">
      <path d="M160 0H0V160" fill="none" stroke="#606b70" stroke-width="1" opacity="0.12"/>
      <path d="M40 0V160M80 0V160M120 0V160M0 40H160M0 80H160M0 120H160" fill="none" stroke="#606b70" stroke-width="0.7" opacity="0.05"/>
      <circle cx="0" cy="0" r="2" fill="#00c8e5" opacity="0.40"/>
    </pattern>
    <linearGradient id="railFade" x1="0" y1="0" x2="1" y2="0">
      <stop offset="0" stop-color="#080b0c" stop-opacity="0"/>
      <stop offset="0.27" stop-color="#080b0c" stop-opacity="0.18"/>
      <stop offset="0.76" stop-color="#080b0c" stop-opacity="0.18"/>
      <stop offset="1" stop-color="#080b0c" stop-opacity="0"/>
    </linearGradient>
  </defs>
  <rect width="2560" height="1440" fill="#fafbfa"/>
  <rect width="2560" height="1440" fill="url(#majorGrid)"/>
  <path d="M-80 1090L560 822L1140 842L1670 956L2640 500V1440H-80Z" fill="#ffffff" opacity="0.72"/>
  <path d="M1340 -80L2630 750M1550 -80L2630 610M1780 -80L2630 440" fill="none" stroke="#00c8e5" stroke-width="2" opacity="0.18"/>
  <path d="M1510 -80L2630 630M1690 -80L2630 510" fill="none" stroke="#ff1744" stroke-width="5" opacity="0.12"/>
  <path d="M0 116H2560M0 1324H2560" stroke="url(#railFade)" stroke-width="2"/>
  <path d="M184 116H690" stroke="#ff1744" stroke-width="4"/>
  <path d="M2060 1324H2354" stroke="#00c8e5" stroke-width="4" opacity="0.92"/>
  <g fill="none" stroke="#080b0c" opacity="0.13">
    <path d="M1900 240L2290 370L2390 720L2160 1050L1740 1000L1540 650Z" stroke-width="2"/>
    <path d="M1950 300L2230 400L2310 700L2120 970L1810 930L1620 650Z" stroke-width="1.5"/>
    <path d="M2010 374L2180 440L2240 678L2080 884L1860 850L1690 650Z" stroke-width="1"/>
    <circle cx="1960" cy="650" r="320" stroke-dasharray="8 26"/>
    <circle cx="1960" cy="650" r="250" stroke-dasharray="2 18"/>
  </g>
  <g fill="#080b0c" opacity="0.20">
    <rect x="2300" y="118" width="46" height="5"/>
    <rect x="2352" y="118" width="14" height="5"/>
    <rect x="2372" y="118" width="7" height="5"/>
    <rect x="2385" y="118" width="31" height="5"/>
  </g>
</svg>
